<svg data-name="Слой 1" xmlns="http://www.w3.org/2000/svg" viewBox="0 0 165 45"><path d="M134.65 12.89h-4.86A3.66 3.66 0 00126 16.2l-2.12 11c-.38 2 .2 3.32 2.53 3.32h4.89a3.6 3.6 0 003.81-3.32l2.19-11c.35-1.95-.24-3.31-2.61-3.31m-1.27 4.05l-1.88 9.57a.6.6 0 01-.59.61h-2.79c-.39 0-.48-.15-.43-.6l1.86-9.57c.13-.43.33-.63.69-.63H133c.35 0 .53.2.46.63m-13.64 10.16l2.78-14.22H115a3.63 3.63 0 00-3.88 3.31l-3.07 10.91h-1.59l-.7 3.45h14.5l.69-3.45zm-1.66-10.8L116 27.11h-4l2.76-10.17a.63.63 0 01.63-.63h2.76zm-14 14.25l.47-17.56h-5.12l-8.46 17.62h4.08l1.41-3.26h3.66l-.27 3.26zm-3.17-13l-.55 6.89h-2.66l3-6.89zm-7.73-1.36c.4-1.95-.2-3.31-2.56-3.31h-8l-3.47 17.67h3.67l1-5.12h4.4c2.35 0 3.32-1.42 3.76-3.37zm-3.83.74l-.9 4.41c-.11.48-.33.63-.72.63h-3.24l1.17-5.67H89c.39 0 .53.2.48.63m-10.82-.74c.38-1.95-.21-3.31-2.58-3.31h-4.81a3.74 3.74 0 00-4 3.31l-2.1 11c-.35 2 .22 3.32 2.54 3.32h4.86a3.6 3.6 0 003.84-3.32zm-3.85.74L73 26.51a.72.72 0 01-.74.6h-2.72c-.36 0-.48-.15-.43-.6L71 16.94c0-.43.25-.63.68-.63h2.68c.33 0 .54.2.43.63M61.63 27.11l2.77-14.22h-7.58A3.64 3.64 0 0053 16.2l-3.13 10.91H48.3l-.72 3.45H62.1l.68-3.45zM60 16.31l-2.14 10.8h-4l2.76-10.17a.61.61 0 01.61-.63H60zM47.47 21.9c.37-2-.24-3.4-2.59-3.4h-4.33l1.12-5.61H37.9l-3.46 17.67h8.11a3.61 3.61 0 003.85-3.32zm-3.86.45l-.78 4.31a.77.77 0 01-.77.69h-3.18L40 21.71h3.2c.37 0 .51.18.41.63M30.8 30.56L34.24 13h-8a3.64 3.64 0 00-3.87 3.31l-4.11 14.3h4l3.7-13.62a.62.62 0 01.61-.63h3.29L27 30.56zM18.86 16.2c.37-1.95-.2-3.31-2.52-3.31H9.12l-.68 3.42h6.15c.37 0 .48.2.43.63L14.24 21h-3.83l.59-2.81-8.86 4.24h6.58l-.57 2.8L14 22.45l-.78 4a.69.69 0 01-.75.6H6.33l-.65 3.45h7.24a3.53 3.53 0 003.77-3.26v-.06zm118.37 10.29l-.79 4.07h3.72l.8-4.07h-3.73zm25.77-8.3h-2.71l-1.84 9.45a.29.29 0 01-.32.33h-2c-.18 0-.24-.08-.19-.33l1.8-9.45H155l-1.91 9.86c-.29 1.48.1 2.51 1.89 2.51h3.11a2.71 2.71 0 002.91-2.51zm-12.59 0h-5.59l-2.35 12.37H145l.73-3.52H147l.55 3.52h2.83l-.75-3.68a2.66 2.66 0 001.79-2.26l.81-4.11c.28-1.36-.14-2.35-1.79-2.35m-.92 2.84l-.63 3c-.07.34-.22.44-.49.44h-2.25l.81-4h2.24c.26 0 .36.15.33.45" fill="#c10230"/></svg>